<svg width="562.25" height="127.25232718031042" viewBox="0 0 369.66666666666663 83.66552888274151" class="looka-1j8o68f"><defs id="SvgjsDefs1194"></defs><g id="SvgjsG1195" featurekey="PG4fjM-0" transform="matrix(1.0462439640538823,0,0,1.0462439640538823,-10.6716882337944,-10.46238675841097)" fill="#0092ca"><defs xmlns="http://www.w3.org/2000/svg"></defs><title xmlns="http://www.w3.org/2000/svg"></title><path xmlns="http://www.w3.org/2000/svg" d="M20,41.37a37.51,37.51,0,0,1,16.79.46c6.3,1.4,13.16,4.21,20,6.66S70.6,53,76.92,52.91a26.65,26.65,0,0,0,12.93-3.25,40.9,40.9,0,0,0-.5-6,25.53,25.53,0,0,1-13.69.43c-6-1.26-12.41-4.38-18.8-7.46s-12.77-6.1-18.77-7.21a24.93,24.93,0,0,0-16.41,2A37.92,37.92,0,0,0,11.2,39.66a40,40,0,0,0-1,5.4A43.17,43.17,0,0,1,20,41.37Z" style="fill-rule: evenodd;"></path><path xmlns="http://www.w3.org/2000/svg" d="M78.11,61.13c-6.69.77-14-.68-21.25-2.49S42.29,54.7,35.57,54a43.67,43.67,0,0,0-17.88,1.51c-2.69.8-5.06,1.79-7,2.52A40.24,40.24,0,0,0,13,65.63c.94,0,1.94,0,3-.07a96.05,96.05,0,0,1,18.26.91c7,.94,14.8,2.85,22.57,4S72.39,72,79.4,69.92A32.83,32.83,0,0,0,86,67.22a39.48,39.48,0,0,0,3.12-9.4A29.57,29.57,0,0,1,78.11,61.13Z" style="fill-rule: evenodd;"></path><path xmlns="http://www.w3.org/2000/svg" d="M49.85,10a39.84,39.84,0,0,0-22.34,6.81,32.75,32.75,0,0,1,11.57,2.92c5.6,2.36,11.69,6.06,17.78,9.53S69,35.79,74.64,37a23.37,23.37,0,0,0,12.9-.44A40,40,0,0,0,49.85,10Z" style="fill-rule: evenodd;"></path><path xmlns="http://www.w3.org/2000/svg" d="M76.53,79.8c-6.27,1.53-13,1.55-19.67,1-8.2-.65-16.4-2-23.83-2.3a98.91,98.91,0,0,0-11.18,0A40,40,0,0,0,76.53,79.8Z" style="fill-rule: evenodd;"></path></g><g id="SvgjsG1196" featurekey="jxYttZ-0" transform="matrix(3.715055324625889,0,0,3.715055324625889,102.99999822852358,-4.163555174617265)" fill="#393e46"><path d="M7.52 5 l6.16 15 l-2.4 0 l-1.5 -3.92 l-5.9 0 l-1.48 3.92 l-2.4 0 l6.16 -15 l1.36 0 z M4.58 14.24 l4.5 0 l-2.24 -5.92 z M18.880000000000003 18.36 c0.64 0.26 1.14 0.08 1.44 -0.06 l0 1.6 c-0.26 0.16 -0.64 0.3 -1.18 0.3 c-1.18 0 -2.22 -0.38 -2.86 -1.42 c-0.6 -1 -0.6 -1.54 -0.6 -3.1 l0 -3.88 l-1.2 0 l0 -1.68 l1.2 0 l0 -3.12 l2.06 0 l0 3.12 l2.58 0 l0 1.68 l-2.58 0 l0 3.88 c0 1.64 0.16 2.24 1.14 2.68 z M25.000000000000004 4.619999999999999 l0 15.38 l-2.08 0 l0 -15.38 l2.08 0 z M32.220000000000006 9.92 c2.84 0 3.98 1.72 3.98 3.18 l0 6.9 l-2.06 0 l0 -1.08 c-0.72 0.98 -2 1.26 -2.8 1.26 c-2.26 0 -3.74 -1.32 -3.74 -3.08 c0 -2.46 1.84 -3.34 3.74 -3.34 l2.8 0 l0 -0.66 c0 -0.62 -0.24 -1.48 -1.92 -1.48 c-0.94 0 -1.8 0.5 -2.36 1.28 l-1.42 -1.28 c0.94 -1.04 2.28 -1.7 3.78 -1.7 z M34.14 16.92 l0 -1.48 l-2.52 0 c-1.22 0 -2.08 0.62 -1.94 1.74 c0.12 0.94 0.88 1.32 1.94 1.32 c1.9 0 2.52 -0.9 2.52 -1.58 z M47.82000000000001 14.3 l0 5.7 l-2.06 0 l0 -5.5 c0 -2 -0.62 -2.88 -2.32 -2.88 c-1.92 0 -2.7 1.34 -2.7 3.08 l0 5.3 l-2.06 0 l0 -9.88 l2.06 0 l0 1.6 c0.28 -0.88 1.52 -1.68 2.7 -1.76 c2.68 -0.2 4.38 1.1 4.38 4.34 z M54.36000000000001 18.36 c0.64 0.26 1.14 0.08 1.44 -0.06 l0 1.6 c-0.26 0.16 -0.64 0.3 -1.18 0.3 c-1.18 0 -2.22 -0.38 -2.86 -1.42 c-0.6 -1 -0.6 -1.54 -0.6 -3.1 l0 -3.88 l-1.2 0 l0 -1.68 l1.2 0 l0 -3.12 l2.06 0 l0 3.12 l2.58 0 l0 1.68 l-2.58 0 l0 3.88 c0 1.64 0.16 2.24 1.14 2.68 z M60.56000000000001 10.12 l0 9.88 l-2.06 0 l0 -9.88 l2.06 0 z M60.66000000000001 6.5 c0 0.64 -0.5 1.14 -1.14 1.14 c-0.62 0 -1.12 -0.5 -1.12 -1.14 c0 -0.62 0.5 -1.12 1.12 -1.12 c0.64 0 1.14 0.5 1.14 1.12 z M70.36 17.42 l1.42 1.28 c-0.94 1.04 -2.28 1.5 -3.78 1.5 c-2.84 0 -5.14 -2.18 -5.14 -5.12 s2.3 -5.14 5.14 -5.14 c1.5 0 2.84 0.46 3.78 1.5 l-1.42 1.28 c-0.58 -0.78 -1.42 -1.08 -2.36 -1.08 c-1.7 0 -3.08 1.42 -3.08 3.44 c0 2 1.38 3.44 3.08 3.44 c0.94 0 1.78 -0.3 2.36 -1.1 z"></path></g></svg>